<!DOCTYPE svg PUBLIC "-//W3C//DTD SVG 1.1//EN" "http://www.w3.org/Graphics/SVG/1.1/DTD/svg11.dtd">
<!-- Uploaded to: SVG Repo, www.svgrepo.com, Transformed by: SVG Repo Mixer Tools -->
<svg version="1.1" id="Layer_1" xmlns="http://www.w3.org/2000/svg" xmlns:xlink="http://www.w3.org/1999/xlink" viewBox="0 0 512 512" xml:space="preserve" width="64px" height="64px" fill="#000000">
<g id="SVGRepo_bgCarrier" stroke-width="0"/>
<g id="SVGRepo_tracerCarrier" stroke-linecap="round" stroke-linejoin="round"/>
<g id="SVGRepo_iconCarrier"> <path style="fill:#FFE6B8;" d="M464.745,24.478H47.255c-20.465,0-37.056,16.591-37.056,37.056v390.289h491.602V61.534 C501.801,41.069,485.21,24.478,464.745,24.478z"/> <g> <rect x="47.936" y="256" style="fill:#FFAD61;" width="416.128" height="150.948"/> <rect x="47.936" y="62.215" style="fill:#FFAD61;" width="416.128" height="150.948"/> </g> <g> <rect x="30.598" y="451.825" style="fill:#D35B38;" width="71.394" height="35.697"/> <rect x="410.008" y="451.825" style="fill:#D35B38;" width="71.394" height="35.697"/> </g> <g> <circle style="fill:#FFE6B8;" cx="256" cy="331.474" r="21.418"/> <circle style="fill:#FFE6B8;" cx="256" cy="137.689" r="21.418"/> <polygon style="fill:#FFE6B8;" points="369.211,151.836 443.665,255.867 209.084,255.867 "/> </g> <g> <path style="fill:#4D3D36;" d="M464.745,14.279H47.255C21.198,14.279,0,35.477,0,61.534v390.289 c0,5.632,4.567,10.199,10.199,10.199h10.199v25.5c0,5.632,4.567,10.199,10.199,10.199h71.394c5.632,0,10.199-4.567,10.199-10.199 v-25.5h287.618v25.5c0,5.632,4.567,10.199,10.199,10.199h71.394c5.632,0,10.199-4.567,10.199-10.199v-25.5h10.199 c5.632,0,10.199-4.567,10.199-10.199V61.534C512,35.477,490.802,14.279,464.745,14.279z M91.793,477.323H40.797v-15.301h50.996 V477.323z M471.203,477.323h-50.996v-15.301h50.996V477.323z M20.398,441.623V61.534c0-14.808,12.048-26.857,26.857-26.857h417.49 c14.809,0,26.857,12.048,26.857,26.857v380.09H20.398z"/> <path style="fill:#4D3D36;" d="M464.064,52.016H47.936c-5.632,0-10.199,4.567-10.199,10.199v150.948 c0,5.632,4.567,10.199,10.199,10.199h192.458l-34.538,22.438H47.936c-5.632,0-10.199,4.567-10.199,10.199v150.948 c0,5.632,4.567,10.199,10.199,10.199h416.128c5.632,0,10.199-4.567,10.199-10.199V256c0-5.632-4.567-10.199-10.199-10.199h-15.061 l-16.059-22.438h31.12c5.632,0,10.199-4.567,10.199-10.199V62.215C474.263,56.583,469.696,52.016,464.064,52.016z M423.824,245.668 h-29.115l-27.538-36.717c-3.38-4.505-9.772-5.419-14.279-2.04c-4.506,3.379-5.419,9.773-2.04,14.279l18.359,24.478h-26.008 l-10.709-14.279c-3.38-4.506-9.772-5.419-14.279-2.04c-4.506,3.379-5.419,9.773-2.04,14.279l1.53,2.04h-74.202L366.592,165.7 L423.824,245.668z M453.865,396.749H58.135v-130.55h395.729V396.749z M453.865,202.964h-35.519L377.505,145.9 c-3.174-4.435-9.275-5.588-13.851-2.616l-91.862,59.681H58.135V72.414h395.729V202.964z"/> <path style="fill:#4D3D36;" d="M256,363.092c17.435,0,31.618-14.183,31.618-31.618S273.435,299.857,256,299.857 s-31.618,14.183-31.618,31.618S238.565,363.092,256,363.092z M256,320.255c6.186,0,11.219,5.033,11.219,11.219 s-5.033,11.219-11.219,11.219c-6.186,0-11.219-5.033-11.219-11.219S249.814,320.255,256,320.255z"/> <path style="fill:#4D3D36;" d="M256,169.307c17.435,0,31.618-14.183,31.618-31.618c0-17.435-14.183-31.618-31.618-31.618 s-31.618,14.183-31.618,31.618S238.565,169.307,256,169.307z M256,126.47c6.186,0,11.219,5.033,11.219,11.219 c0,6.186-5.033,11.219-11.219,11.219c-6.186,0-11.219-5.033-11.219-11.219C244.781,131.503,249.814,126.47,256,126.47z"/> <path style="fill:#4D3D36;" d="M349.833,386.55h82.614c5.632,0,10.199-4.567,10.199-10.199c0-5.632-4.567-10.199-10.199-10.199 h-82.614c-5.632,0-10.199,4.567-10.199,10.199C339.633,381.983,344.201,386.55,349.833,386.55z"/> <path style="fill:#4D3D36;" d="M310.056,386.55h5.1c5.632,0,10.199-4.567,10.199-10.199c0-5.632-4.567-10.199-10.199-10.199h-5.1 c-5.632,0-10.199,4.567-10.199,10.199C299.857,381.983,304.424,386.55,310.056,386.55z"/> </g> </g>
</svg>