<!DOCTYPE svg PUBLIC "-//W3C//DTD SVG 1.1//EN" "http://www.w3.org/Graphics/SVG/1.1/DTD/svg11.dtd">
<!-- Uploaded to: SVG Repo, www.svgrepo.com, Transformed by: SVG Repo Mixer Tools -->
<svg version="1.1" id="Layer_1" xmlns="http://www.w3.org/2000/svg" xmlns:xlink="http://www.w3.org/1999/xlink" viewBox="0 0 512 512" xml:space="preserve" width="64px" height="64px" fill="#000000" transform="rotate(90)">
<g id="SVGRepo_bgCarrier" stroke-width="0"/>
<g id="SVGRepo_tracerCarrier" stroke-linecap="round" stroke-linejoin="round"/>
<g id="SVGRepo_iconCarrier"> <rect x="38.4" y="294.4" style="fill:#FFCFCC;" width="51.2" height="153.6"/> <rect x="166.4" y="140.8" style="fill:#FFB7B2;" width="51.2" height="307.2"/> <rect x="294.4" y="192" style="fill:#FF9F99;" width="51.2" height="256"/> <rect x="422.4" y="12.8" style="fill:#FF877F;" width="51.2" height="435.2"/> <g> <path style="fill:#573A32;" d="M499.2,512H12.8C5.726,512,0,506.274,0,499.2c0-7.074,5.726-12.8,12.8-12.8h486.4 c7.074,0,12.8,5.726,12.8,12.8C512,506.274,506.274,512,499.2,512z"/> <path style="fill:#573A32;" d="M76.8,281.6H51.2c-14.14,0-25.6,11.46-25.6,25.6v128c0,14.14,11.46,25.6,25.6,25.6h25.6 c14.14,0,25.6-11.46,25.6-25.6v-128C102.4,293.06,90.94,281.6,76.8,281.6z M51.2,435.2v-128h25.6v128H51.2z"/> <path style="fill:#573A32;" d="M204.8,128h-25.6c-14.14,0-25.6,11.46-25.6,25.6v281.6c0,14.14,11.46,25.6,25.6,25.6h25.6 c14.14,0,25.6-11.46,25.6-25.6V153.6C230.4,139.46,218.94,128,204.8,128z M179.2,435.2V153.6h25.6v281.6H179.2z"/> <path style="fill:#573A32;" d="M332.8,179.2h-25.6c-14.14,0-25.6,11.46-25.6,25.6v230.4c0,14.14,11.46,25.6,25.6,25.6h25.6 c14.14,0,25.6-11.46,25.6-25.6V204.8C358.4,190.66,346.94,179.2,332.8,179.2z M307.2,435.2V204.8h25.6v230.4H307.2z"/> <path style="fill:#573A32;" d="M460.8,0h-25.6c-14.14,0-25.6,11.46-25.6,25.6v409.6c0,14.14,11.46,25.6,25.6,25.6h25.6 c14.14,0,25.6-11.46,25.6-25.6V25.6C486.4,11.46,474.94,0,460.8,0z M435.2,435.2V25.6h25.6v409.6H435.2z"/> </g> </g>
</svg>