<!DOCTYPE svg PUBLIC "-//W3C//DTD SVG 1.1//EN" "http://www.w3.org/Graphics/SVG/1.1/DTD/svg11.dtd">

<!-- Uploaded to: SVG Repo, www.svgrepo.com, Transformed by: SVG Repo Mixer Tools -->
<svg fill="#d9d7e0" width="800px" height="800px" viewBox="0 0 24 24" xmlns="http://www.w3.org/2000/svg" stroke="#d9d7e0">

<g id="SVGRepo_bgCarrier" stroke-width="0"/>

<g id="SVGRepo_tracerCarrier" stroke-linecap="round" stroke-linejoin="round"/>

<g id="SVGRepo_iconCarrier">

<path fill-rule="evenodd" d="M3.75 4.5a.25.25 0 00-.25.25v14.5c0 .138.112.25.25.25h16.5a.25.25 0 00.25-.25V7.687a.25.25 0 00-.25-.25h-8.471a1.75 1.75 0 01-1.447-.765L8.928 4.61a.25.25 0 00-.208-.11H3.75zM2 4.75C2 3.784 2.784 3 3.75 3h4.971c.58 0 1.12.286 1.447.765l1.404 2.063a.25.25 0 00.207.11h8.471c.966 0 1.75.783 1.75 1.75V19.25A1.75 1.75 0 0120.25 21H3.75A1.75 1.75 0 012 19.25V4.75z"/>

</g>

</svg>