<!DOCTYPE svg PUBLIC "-//W3C//DTD SVG 1.1//EN" "http://www.w3.org/Graphics/SVG/1.1/DTD/svg11.dtd">
<!-- Uploaded to: SVG Repo, www.svgrepo.com, Transformed by: SVG Repo Mixer Tools -->
<svg fill="#828187" width="64px" height="64px" viewBox="0 0 32 32" version="1.1" xmlns="http://www.w3.org/2000/svg">
<g id="SVGRepo_bgCarrier" stroke-width="0"/>
<g id="SVGRepo_tracerCarrier" stroke-linecap="round" stroke-linejoin="round"/>
<g id="SVGRepo_iconCarrier"> <title>ellipsis-filled</title> <path d="M20.25 16c0 2.347-1.903 4.25-4.25 4.25s-4.25-1.903-4.25-4.25c0-2.347 1.903-4.25 4.25-4.25s4.25 1.903 4.25 4.25zM9.25 16c0 2.347-1.903 4.25-4.25 4.25s-4.25-1.903-4.25-4.25c0-2.347 1.903-4.25 4.25-4.25s4.25 1.903 4.25 4.25zM31.25 16c0 2.347-1.903 4.25-4.25 4.25s-4.25-1.903-4.25-4.25c0-2.347 1.903-4.25 4.25-4.25s4.25 1.903 4.25 4.25z"/> </g>
</svg>