<!DOCTYPE svg PUBLIC "-//W3C//DTD SVG 1.1//EN" "http://www.w3.org/Graphics/SVG/1.1/DTD/svg11.dtd">
<!-- Uploaded to: SVG Repo, www.svgrepo.com, Transformed by: SVG Repo Mixer Tools -->
<svg fill="#828187" height="64px" width="64px" version="1.1" id="Layer_1" xmlns="http://www.w3.org/2000/svg" xmlns:xlink="http://www.w3.org/1999/xlink" viewBox="0 0 512 512" xml:space="preserve" transform="rotate(0)matrix(-1, 0, 0, 1, 0, 0)" stroke="#828187" stroke-width="0.00512">
<g id="SVGRepo_bgCarrier" stroke-width="0"/>
<g id="SVGRepo_tracerCarrier" stroke-linecap="round" stroke-linejoin="round"/>
<g id="SVGRepo_iconCarrier"> <g> <g> <path d="M275.692,65.641v39.385h26.256v131.282h-91.897v-39.385l39.385-78.769l-39.385-52.513h-26.256h-26.256l-39.385,52.513 l39.385,78.769v39.385H78.769v65.641H39.385L0,446.359h118.154v-35.234c14.11,21.232,38.236,35.234,65.641,35.234 c34.295,0,63.455-21.923,74.269-52.513h52.74c14.75,31.044,46.385,52.513,83.042,52.513c50.754,0,91.897-41.144,91.897-91.897 V105.026H512V65.641H275.692z M78.769,406.974H51.564l17.903-65.641h9.303V406.974z M177.231,105.026h13.128l12.965,17.286 l-19.53,39.058l-19.529-39.058L177.231,105.026z M183.795,406.974c-21.717,0-39.385-17.667-39.385-39.385 c0-21.717,17.668-39.385,39.385-39.385s39.385,17.668,39.385,39.385C223.18,389.308,205.512,406.974,183.795,406.974z M301.949,354.462h-40.495c-6.253-37.251-38.631-65.641-77.659-65.641c-27.405,0-51.531,14.001-65.641,35.234v-22.105v-26.256 h183.795V354.462z M393.846,406.974c-28.956,0-52.513-23.556-52.513-52.513s23.557-52.513,52.513-52.513 s52.513,23.556,52.513,52.513S422.802,406.974,393.846,406.974z M446.359,279.064c-14.887-10.39-32.982-16.5-52.513-16.5 c-19.531,0-37.625,6.11-52.513,16.5v-42.756h105.026V279.064z M446.359,196.923H341.333v-91.897h105.026V196.923z"/> </g> </g> </g>
</svg>