<!DOCTYPE svg PUBLIC "-//W3C//DTD SVG 1.1//EN" "http://www.w3.org/Graphics/SVG/1.1/DTD/svg11.dtd">
<!-- Uploaded to: SVG Repo, www.svgrepo.com, Transformed by: SVG Repo Mixer Tools -->
<svg fill="#828187" height="64px" width="64px" version="1.1" id="Layer_1" xmlns="http://www.w3.org/2000/svg" xmlns:xlink="http://www.w3.org/1999/xlink" viewBox="0 0 508 508" xml:space="preserve">
<g id="SVGRepo_bgCarrier" stroke-width="0"/>
<g id="SVGRepo_tracerCarrier" stroke-linecap="round" stroke-linejoin="round"/>
<g id="SVGRepo_iconCarrier"> <g> <g> <path d="M465.7,117.885h-334l138-92c6.5-4.3,8.2-13.1,3.9-19.6s-13.1-8.2-19.6-3.9l-161.2,107.6L70,40.485 c-2.4-7.4-10.4-11.4-17.8-9c-7.4,2.4-11.4,10.4-9,17.8l22.5,68.6H42.3c-23.3,0-42.3,19-42.3,42.3v291.5c0,23.3,19,42.3,42.3,42.3 h23.6c0.1,7.8,6.4,14,14.1,14h46c7.7,0,14-6.2,14.1-13.9h227.8c0.1,7.7,6.4,13.9,14.1,13.9h46c7.7,0,14-6.2,14.1-13.9h23.6 c23.3,0,42.3-19,42.3-42.3v-291.6C508,136.885,489,117.885,465.7,117.885z M465.7,465.785H42.3c-7.8,0-14.1-6.3-14.1-14.1v-291.5 c0-7.8,6.3-14.1,14.1-14.1h423.3c7.8,0,14.1,6.3,14.1,14.1v291.5h0.1C479.8,459.485,473.5,465.785,465.7,465.785z"/> </g> </g> <g> <g> <path d="M341.8,174.285H70.6c-7.8,0-14.1,6.3-14.1,14.1v235.1c0,7.8,6.3,14.1,14.1,14.1h271.2c7.8,0,14.1-6.3,14.1-14.1v-235 C355.9,180.685,349.6,174.285,341.8,174.285z M327.7,409.385h-243v-87.9h20.5c7.8,0,14.1-6.3,14.1-14.1c0-7.8-6.3-14.1-14.1-14.1 H84.7v-28.3h48.7c7.8,0,14.1-6.3,14.1-14.1c0-7.8-6.3-14.1-14.1-14.1H84.7v-34.3h243V409.385z"/> </g> </g> <g> <g> <path d="M422.6,174.385h-5.7c-7.8,0-14.1,6.3-14.1,14.1s6.4,14.1,14.1,14.1h5.7c7.8,0,14.1-6.3,14.1-14.1 S430.4,174.385,422.6,174.385z"/> </g> </g> <g> <g> <path d="M422.6,231.485h-5.7c-7.8,0-14.1,6.3-14.1,14.1c0,7.8,6.4,14.1,14.1,14.1h5.7c7.8,0,14.1-6.3,14.1-14.1 C436.7,237.785,430.4,231.485,422.6,231.485z"/> </g> </g> <g> <g> <path d="M422.6,288.685h-5.7c-7.8,0-14.1,6.3-14.1,14.1c0,7.8,6.4,14.1,14.1,14.1h5.7c7.8,0,14.1-6.3,14.1-14.1 C436.7,294.985,430.4,288.685,422.6,288.685z"/> </g> </g> <g> <g> <path d="M419.8,352.285c-23.5,0-42.7,19.1-42.7,42.7c0,23.5,19.1,42.7,42.7,42.7c23.6,0,42.7-19.1,42.7-42.7 C462.5,371.385,443.3,352.285,419.8,352.285z M419.8,409.385c-8,0-14.5-6.5-14.5-14.5s6.5-14.5,14.5-14.5s14.5,6.5,14.5,14.5 C434.2,402.885,427.7,409.385,419.8,409.385z"/> </g> </g> </g>
</svg>